# Tiled2Unity generated file. Do not modify by hand.
# Wavefront file for 'ForestMap_mesh_0002.obj'

# Vertices (Count = 68)
v 0 -53 0
v -1 -53 0
v -1 -52 0
v 0 -52 0
v -1 -53 0
v -2 -53 0
v -2 -52 0
v -1 -52 0
v -2 -53 0
v -3 -53 0
v -3 -52 0
v -2 -52 0
v -3 -53 0
v -4 -53 0
v -4 -52 0
v -3 -52 0
v -4 -53 0
v -5 -53 0
v -5 -52 0
v -4 -52 0
v -5 -53 0
v -6 -53 0
v -6 -52 0
v -5 -52 0
v -6 -53 0
v -7 -53 0
v -7 -52 0
v -6 -52 0
v -7 -53 0
v -8 -53 0
v -8 -52 0
v -7 -52 0
v -8 -53 0
v -9 -53 0
v -9 -52 0
v -8 -52 0
v -9 -53 0
v -10 -53 0
v -10 -52 0
v -9 -52 0
v -10 -53 0
v -11 -53 0
v -11 -52 0
v -10 -52 0
v -11 -53 0
v -12 -53 0
v -12 -52 0
v -11 -52 0
v -12 -53 0
v -13 -53 0
v -13 -52 0
v -12 -52 0
v -13 -53 0
v -14 -53 0
v -14 -52 0
v -13 -52 0
v -14 -53 0
v -15 -53 0
v -15 -52 0
v -14 -52 0
v -15 -53 0
v -16 -53 0
v -16 -52 0
v -15 -52 0
v -16 -53 0
v -17 -53 0
v -17 -52 0
v -16 -52 0

# Texture cooridinates (Count = 4)
vt 0.4117647 0.875
vt 0.4705882 0.875
vt 0.4705882 1
vt 0.4117647 1

# Normal
vn 0 0 -1

# Mesh description
g ForestMap_mesh_0002

# Faces
f 1/1/1 2/2/1 3/3/1 4/4/1
f 5/1/1 6/2/1 7/3/1 8/4/1
f 9/1/1 10/2/1 11/3/1 12/4/1
f 13/1/1 14/2/1 15/3/1 16/4/1
f 17/1/1 18/2/1 19/3/1 20/4/1
f 21/1/1 22/2/1 23/3/1 24/4/1
f 25/1/1 26/2/1 27/3/1 28/4/1
f 29/1/1 30/2/1 31/3/1 32/4/1
f 33/1/1 34/2/1 35/3/1 36/4/1
f 37/1/1 38/2/1 39/3/1 40/4/1
f 41/1/1 42/2/1 43/3/1 44/4/1
f 45/1/1 46/2/1 47/3/1 48/4/1
f 49/1/1 50/2/1 51/3/1 52/4/1
f 53/1/1 54/2/1 55/3/1 56/4/1
f 57/1/1 58/2/1 59/3/1 60/4/1
f 61/1/1 62/2/1 63/3/1 64/4/1
f 65/1/1 66/2/1 67/3/1 68/4/1

