# Tiled2Unity generated file. Do not modify by hand.
# Wavefront file for 'ForestMap_mesh_0003.obj'

# Vertices (Count = 20)
v -10 -52 0
v -11 -52 0
v -11 -51 0
v -10 -51 0
v -11 -52 0
v -12 -52 0
v -12 -51 0
v -11 -51 0
v -12 -52 0
v -13 -52 0
v -13 -51 0
v -12 -51 0
v -13 -52 0
v -14 -52 0
v -14 -51 0
v -13 -51 0
v -14 -52 0
v -15 -52 0
v -15 -51 0
v -14 -51 0

# Texture cooridinates (Count = 8)
vt 0.8235294 0.625
vt 0.8823529 0.625
vt 0.8823529 0.75
vt 0.8235294 0.75
vt 0.9411765 0.625
vt 0.9411765 0.75
vt 1 0.625
vt 1 0.75

# Normal
vn 0 0 -1

# Mesh description
g ForestMap_mesh_0003

# Faces
f 1/1/1 2/2/1 3/3/1 4/4/1
f 5/2/1 6/5/1 7/6/1 8/3/1
f 9/2/1 10/5/1 11/6/1 12/3/1
f 13/2/1 14/5/1 15/6/1 16/3/1
f 17/5/1 18/7/1 19/8/1 20/6/1

